<svg width="40" height="40" viewBox="0 0 40 40" fill="none" xmlns="http://www.w3.org/2000/svg">
<path d="M32.54 9.62207L22.24 3.62207C21.5383 3.21462 20.7414 3 19.93 3C19.1186 3 18.3217 3.21462 17.62 3.62207L7.31 9.62207C6.60714 10.0267 6.02346 10.6096 5.61788 11.3119C5.2123 12.0142 4.99917 12.8111 5 13.6221V25.5221C5.00018 26.3329 5.21374 27.1294 5.61922 27.8315C6.0247 28.5336 6.60783 29.1167 7.31 29.5221L17.62 35.4721C18.3233 35.8746 19.1196 36.0864 19.93 36.0864C20.7404 36.0864 21.5367 35.8746 22.24 35.4721L32.54 29.5221C33.2422 29.1167 33.8253 28.5336 34.2308 27.8315C34.6363 27.1294 34.8498 26.3329 34.85 25.5221V13.6121C34.8491 12.8028 34.6351 12.008 34.2296 11.3076C33.8241 10.6072 33.2414 10.0259 32.54 9.62207Z" fill="white"/>
<path opacity="0.7" d="M19.9297 19.1328V35.3328" stroke="#7A90AA" stroke-width="3" stroke-miterlimit="10" stroke-linecap="round"/>
<path d="M5.86914 11.7422L17.5991 18.5122C18.3008 18.9196 19.0978 19.1343 19.9091 19.1343C20.7205 19.1343 21.5175 18.9196 22.2191 18.5122L33.8691 11.7422" stroke="#00BABA" stroke-width="3" stroke-miterlimit="10"/>
<path d="M32.54 9.62207L22.24 3.62207C21.5383 3.21462 20.7414 3 19.93 3C19.1186 3 18.3217 3.21462 17.62 3.62207L7.31 9.62207C6.60714 10.0267 6.02346 10.6096 5.61788 11.3119C5.2123 12.0142 4.99917 12.8111 5 13.6221V25.5221C5.00018 26.3329 5.21374 27.1294 5.61922 27.8315C6.0247 28.5336 6.60783 29.1167 7.31 29.5221L17.62 35.4721C18.3233 35.8746 19.1196 36.0864 19.93 36.0864C20.7404 36.0864 21.5367 35.8746 22.24 35.4721L32.54 29.5221C33.2422 29.1167 33.8253 28.5336 34.2308 27.8315C34.6363 27.1294 34.8498 26.3329 34.85 25.5221V13.6121C34.8491 12.8028 34.6351 12.008 34.2296 11.3076C33.8241 10.6072 33.2414 10.0259 32.54 9.62207Z" stroke="#344456" stroke-width="3" stroke-miterlimit="10" stroke-linecap="round"/>
</svg>
